<svg id="Layer_1" data-name="Layer 1" xmlns="http://www.w3.org/2000/svg" viewBox="0 0 372.93 93.74"><defs><style>.cls-1{fill:#fff;}</style></defs><title>qgmdb-logo-dark</title><path class="cls-1" d="M193.29,338.42a6.06,6.06,0,0,1-4.94,2.5,6.42,6.42,0,0,1-5.31-2.6c-1.36-1.73-2-4.54-2-8.41a27.22,27.22,0,0,0,10.87-4,28.91,28.91,0,0,0,7.95-7.55,34,34,0,0,0,4.9-10.1,40.67,40.67,0,0,0,1.68-11.73A52.2,52.2,0,0,0,204.26,281,32.87,32.87,0,0,0,198,269.32,26.14,26.14,0,0,0,187.89,262a39.59,39.59,0,0,0-27.69,0,27.23,27.23,0,0,0-10.2,7.24,31.45,31.45,0,0,0-6.33,11.58,51.32,51.32,0,0,0-2.14,15.4q0,15.5,6.78,24.12t19.54,10.35v2.15a23.22,23.22,0,0,0,1.42,8.26,19.52,19.52,0,0,0,4,6.48,17.59,17.59,0,0,0,6.12,4.18,21.06,21.06,0,0,0,16-.21,19.84,19.84,0,0,0,6.52-4.64,21,21,0,0,0,4.29-7,25.36,25.36,0,0,0,1.53-9H195.28Q195.28,335.92,193.29,338.42Zm-19.22-18.71q-8.88,0-13.72-5.56t-4.85-17.6q0-12,4.8-18.25t13.77-6.23q9,0,13.67,6.23t4.69,18.25A33.79,33.79,0,0,1,191,307a19.87,19.87,0,0,1-3.93,7.19,15.76,15.76,0,0,1-5.86,4.18A18.68,18.68,0,0,1,174.07,319.71Z" transform="translate(-141.53 -259.53)"/><path class="cls-1" d="M244.75,304.41h15a14.26,14.26,0,0,1-1.28,6,15.78,15.78,0,0,1-3.52,4.94,16.48,16.48,0,0,1-5.25,3.37,17.18,17.18,0,0,1-6.48,1.22,16.12,16.12,0,0,1-8.46-2.14,18.36,18.36,0,0,1-5.87-5.56,24.22,24.22,0,0,1-3.36-7.65,33.85,33.85,0,0,1-1.07-8.41q0-12.15,5.15-18.52a16.72,16.72,0,0,1,13.71-6.37,16.93,16.93,0,0,1,5.56.92,16.76,16.76,0,0,1,4.75,2.44,13.47,13.47,0,0,1,3.36,3.63,10.81,10.81,0,0,1,1.64,4.43H272.9a22.22,22.22,0,0,0-2.8-9.33,24.59,24.59,0,0,0-6.32-7.29,30.32,30.32,0,0,0-9.18-4.8,36,36,0,0,0-11.28-1.73,35,35,0,0,0-14.48,2.8,29.24,29.24,0,0,0-10.4,7.7,33.39,33.39,0,0,0-6.33,11.48,45.27,45.27,0,0,0-2.14,14,43.94,43.94,0,0,0,2.14,13.62,36.8,36.8,0,0,0,6.17,11.63,31,31,0,0,0,9.69,8.06,26.73,26.73,0,0,0,12.7,3,30.46,30.46,0,0,0,12.45-2.4,16.27,16.27,0,0,0,7.85-6.68l.31,6.73H273V293.09H244.75Z" transform="translate(-141.53 -259.53)"/><polygon class="cls-1" points="169.42 51.92 157.18 2.24 136.37 2.24 136.37 69.97 149.53 69.97 149.53 23.77 162.08 69.97 176.15 69.97 188.8 23.56 188.8 69.97 202.06 69.97 202.06 2.24 181.66 2.24 169.42 51.92"/><path class="cls-1" d="M397.6,270.65a27.78,27.78,0,0,0-10-6.58,34.12,34.12,0,0,0-12.65-2.3H348.79V329.5h28.36a28,28,0,0,0,11.93-2.5,26.8,26.8,0,0,0,9.28-7,31.66,31.66,0,0,0,6-10.91,45.27,45.27,0,0,0,2.09-14.13,38.6,38.6,0,0,0-2.34-13.87A30.59,30.59,0,0,0,397.6,270.65Zm-9.85,41.56Q383.58,318,374.29,318H362.56V273.5h10.51a28.06,28.06,0,0,1,8.67,1.17,13.1,13.1,0,0,1,5.86,3.78,15.62,15.62,0,0,1,3.32,6.68,40.82,40.82,0,0,1,1,9.79Q391.94,306.46,387.75,312.21Z" transform="translate(-141.53 -259.53)"/><path class="cls-1" d="M459.2,298.35a32.82,32.82,0,0,0-1-4.91,24.89,24.89,0,0,0-4-8.21,18.26,18.26,0,0,0-6.48-5.35A19.44,19.44,0,0,0,439,278q-9.29,0-14.89,7.85V261H411V329.5h12.75l.1-6.12q4.59,7.44,14,7.45a21.2,21.2,0,0,0,6.8-1.09,27.18,27.18,0,0,1-.83-6.8A27.46,27.46,0,0,1,459.2,298.35ZM434.78,320a9.89,9.89,0,0,1-8-4c-2.14-2.66-3.21-6.12-3.21-10.41q0-16.32,11.11-16.32,11.43,0,11.43,15.51,0,6.72-3.16,11A9.76,9.76,0,0,1,434.78,320Z" transform="translate(-141.53 -259.53)"/><path class="cls-1" d="M471.3,297.89A25.13,25.13,0,1,1,446.16,323,25.13,25.13,0,0,1,471.3,297.89ZM464,314.54a12.23,12.23,0,0,0-1.44-6,3.48,3.48,0,0,0-3.67-1.89,8.12,8.12,0,0,0-3.09,1.1,8.83,8.83,0,0,0-3.85,3.87,10.38,10.38,0,0,0-.87,5.84c.32,2.31,1.45,3.45,3.78,3.58a10.93,10.93,0,0,0,7.41-2.3,3.8,3.8,0,0,0,1.46-2.37C463.84,315.66,463.91,314.93,464,314.54Zm-8.88,9c-2.48,0-3.74.9-4.32,3a10.24,10.24,0,0,0-.26,3.66,9.32,9.32,0,0,0,6.86,8,3.44,3.44,0,0,0,4.07-1.54,11.49,11.49,0,0,0,1.87-7,4.45,4.45,0,0,0-1.68-3.51A11.71,11.71,0,0,0,455.09,323.51Zm16.11,21.93a10.33,10.33,0,0,0,6.56-2.7c1.71-1.6,1.9-3.17.68-5.16a11.83,11.83,0,0,0-5-4.44,4.67,4.67,0,0,0-4.51.07,13,13,0,0,0-1.49.88,10.75,10.75,0,0,0-3.76,4.29,3.29,3.29,0,0,0,.5,3.72A10.06,10.06,0,0,0,471.2,345.44Zm20.44-15.77c0-.39-.06-.91-.14-1.42-.3-2-1.36-3.18-3.19-3.38a10.91,10.91,0,0,0-8.12,2.37,3.72,3.72,0,0,0-1.26,2,9.41,9.41,0,0,0-.24,3.66,10.43,10.43,0,0,0,1.61,4.8,3.24,3.24,0,0,0,3.28,1.5,9.21,9.21,0,0,0,8.06-9.54Zm.55-12.78c0-4.85-3.05-7.79-6.66-9.05a3.45,3.45,0,0,0-4.47,1.56,11.67,11.67,0,0,0-1.81,6.51,4.94,4.94,0,0,0,2.47,4.45,12.26,12.26,0,0,0,5.86,2,3.71,3.71,0,0,0,4.26-3.13C492,318.46,492.08,317.67,492.19,316.89Zm-20.73-3.58a7.25,7.25,0,0,0,1.07-.23,11,11,0,0,0,6.18-5.31,3.33,3.33,0,0,0-.59-4.28,9.44,9.44,0,0,0-6.68-3,9.34,9.34,0,0,0-6.74,2.74A3.5,3.5,0,0,0,464,308a11.47,11.47,0,0,0,4.45,4.37A6.4,6.4,0,0,0,471.46,313.31Zm6.9,9.71a7.08,7.08,0,1,0-7.11,7.08A7.09,7.09,0,0,0,478.36,323Z" transform="translate(-141.53 -259.53)"/><path class="cls-1" d="M478.89,298.42a23.56,23.56,0,0,1,9.21,3.91,24.78,24.78,0,0,1,10.57,17,33.43,33.43,0,0,1,.27,3.75,21.12,21.12,0,0,0,4.8,13.08,11.15,11.15,0,0,0,7.16,4.15,21.57,21.57,0,0,0,2.41.09c.38,0,.81-.07,1,.31a1,1,0,0,1-.14,1.08,9.27,9.27,0,0,1-4.4,3.78,1.85,1.85,0,0,1-.61.13,11.9,11.9,0,0,1-8.43-2.85,13.2,13.2,0,0,1-3.49-5.33,25.85,25.85,0,0,1-1.46-6.43,1.41,1.41,0,0,1,.06-.54c2.65-9.63.62-18.15-6.19-25.46a24.31,24.31,0,0,0-10.29-6.48l-.44-.16Z" transform="translate(-141.53 -259.53)"/><path class="cls-1" d="M468.82,297.32a25,25,0,0,1,31.79,32.06,27.73,27.73,0,0,1-.68-2.83c-.21-1.52-.34-3.05-.41-4.59a25.75,25.75,0,0,0-27.14-24.65C471.14,297.37,469.9,297.32,468.82,297.32Z" transform="translate(-141.53 -259.53)"/><path class="cls-1" d="M484.83,344.88a26,26,0,0,0,10.5-12.7c.12.63.19,1.15.31,1.66.23,1,.48,1.89.71,2.84a.68.68,0,0,1-.07.49,24.91,24.91,0,0,1-11.38,7.74Z" transform="translate(-141.53 -259.53)"/><path class="cls-1" d="M477.76,323a6.48,6.48,0,1,1-6.44-6.5A6.46,6.46,0,0,1,477.76,323Zm-6.49,1.84a1.86,1.86,0,0,0,.1-3.72,1.86,1.86,0,1,0-.1,3.72Zm.91,2.19a.9.9,0,1,0-1.79,0,.9.9,0,0,0,1.79,0Zm-5.8-4.05a.88.88,0,0,0,.88.89.9.9,0,0,0,.91-.87.92.92,0,0,0-.92-.92A.88.88,0,0,0,466.38,323Zm4.92-4.91a.9.9,0,0,0-.91.87.92.92,0,0,0,.86.92.91.91,0,0,0,.93-.9A.88.88,0,0,0,471.3,318.11Zm3.12,4.91a.89.89,0,0,0,1.78,0,.89.89,0,1,0-1.78,0Zm-1.18,2.85a.9.9,0,0,0,.88.9.92.92,0,0,0,.91-.92.9.9,0,0,0-.86-.87A.88.88,0,0,0,473.24,325.87Zm-5.68,0a.88.88,0,0,0,.9.87.9.9,0,0,0,.88-.9.88.88,0,0,0-.93-.88A.85.85,0,0,0,467.56,325.89Zm.9-6.6a.89.89,0,0,0,0,1.78.89.89,0,1,0,0-1.78Zm5.66,0a.87.87,0,0,0-.88.88.89.89,0,0,0,.88.9.91.91,0,0,0,.91-.91A.89.89,0,0,0,474.12,319.29Z" transform="translate(-141.53 -259.53)"/></svg>
